<svg width="1666.516" height="470" version="1.1" viewBox="0 0 1666.5159 470" xmlns="http://www.w3.org/2000/svg"
     xmlns:xlink="http://www.w3.org/1999/xlink">
    <defs>
        <style>.cls-1{fill:#4b78e6;}</style>
        <linearGradient id="a">
            <stop stop-color="#1e81ff" offset="0"/>
            <stop stop-color="#a975e5" offset="1"/>
        </linearGradient>
        <linearGradient id="d" x1="-1.9575247" x2="19.139517" y1="25.825182" y2="4.8704858"
                        gradientUnits="userSpaceOnUse" xlink:href="#a"/>
        <linearGradient id="c" x1="20.578529" x2="373.73505" y1="489.7919" y2="136.01468" gradientUnits="userSpaceOnUse"
                        xlink:href="#a"/>
        <linearGradient id="b" x1="525.6524" x2="1593.9385" y1="219.92632" y2="219.92632"
                        gradientTransform="translate(8.381549,21.971185)" gradientUnits="userSpaceOnUse">
            <stop stop-color="#1e81ff" offset="0"/>
            <stop stop-color="#a975e5" offset="1"/>
        </linearGradient>
    </defs>
    <g transform="matrix(.91796875 0 0 .91796875 0 -1.1007119)">
        <g class="UnoptimicedTransforms" transform="matrix(.83984375 0 0 .83984375 41.469328 41.967868)" fill="#e5e5e5"
           stroke-width="1.00019">
            <path d="m69.791519 0c95.264171 1.2202534 191.462421-3.3987614 285.779471 12.721357 47.85859 8.046424 97.42441 31.224088 119.8466 76.730475 30.46115 61.551538 31.31574 132.096728 34.84751 199.282508 1.32028 54.67744 2.77833 109.49504 0.93361 164.13035-4.67385 37.35223-42.56804 63.9009-79.27619 59.14758-94.43544-1.12091-189.76386 3.50061-283.31891-12.01312-47.15812-7.56541-96.536467-30.44426-117.24336-76.19523-27.9123042-61.10312-27.3299553-130.0201-30.2353317-195.84836-0.83612234-56.25087-2.10829985-112.62354-0.32362356-168.820253 4.46244856-33.292945 35.39724026-59.80352129 68.99022426-59.135307z"
                  stroke-width="1.00019"/>
        </g>
        <g fill="none" stroke-linecap="round" stroke-linejoin="round">
            <path d="m53.279434 53.279457h405.441096v405.441093h-405.441096z" stroke-width="25.3401"/>
            <polyline class="UnoptimicedTransforms" transform="matrix(16.893379,0,0,16.893379,53.279434,53.279457)"
                      points="5 7 10 12 5 17" stroke="url(#d)" stroke-width="2.36779"/>
            <line class="UnoptimicedTransforms" x1="272.89337" x2="374.25363" y1="340.46689" y2="340.46689"
                  stroke="url(#c)" stroke-width="40"/>
        </g>
    </g>
    <path d="m532.64 379.85052c-6.87873 0-12.56692-2.24882-17.06455-6.74645-4.49763-4.7622-6.74645-10.58267-6.74645-17.4614v-245.2533c0-6.87873 2.24882-12.566917 6.74645-17.06455 4.49763-4.7622 10.18582-7.1433 17.06455-7.1433s12.56692 2.3811 17.06455 7.1433c4.49763 4.497633 6.74645 10.18545 6.74645 17.06418v245.25367c0 6.87873-2.24882 12.6992-6.74645 17.4614-4.49763 4.49763-10.18582 6.74645-17.06455 6.74645zm126.1983-212.31475c6.08503 0 11.37637 2.51338 15.874 7.54015s6.74645 9.92125 6.74645 14.68345c0 6.3496-3.1748 12.30235-9.5244 17.85825l-119.45185 109.92745-1.98425-54.7653 90.87865-87.70385c5.02677-5.02677 10.84723-7.54015 17.4614-7.54015zm5.95275 211.9179c-6.87873 0-12.6992-2.64567-17.4614-7.937l-73.41725-77.7826 36.11335-33.3354 71.433 77.7826c5.02677 5.29133 7.54015 11.24408 7.54015 17.85825 0 6.87873-2.77795 12.56692-8.33385 17.06455-5.29133 4.23307-10.58267 6.3496-15.874 6.3496zm231.1119-105.5621c0 21.69447-4.89448 40.87555-14.68345 57.54325-9.5244 16.40313-22.48817 29.23462-38.8913 38.49445-16.13857 9.25983-34.26138 13.88975-54.36845 13.88975s-38.36217-4.62992-54.7653-13.88975c-16.13857-9.25983-29.10233-22.09132-38.8913-38.49445-9.5244-16.6677-14.2866-35.84878-14.2866-57.54325s4.7622-40.74327 14.2866-57.1464c9.78897-16.6677 22.75273-29.63147 38.8913-38.8913 16.40313-9.5244 34.65823-14.2866 54.7653-14.2866s38.22988 4.7622 54.36845 14.2866c16.40313 9.25983 29.3669 22.2236 38.8913 38.8913 9.78897 16.40313 14.68345 35.45193 14.68345 57.1464zm-47.622 0c0-13.4929-2.77795-25.13383-8.33385-34.9228-5.29133-10.05353-12.56692-17.85825-21.82675-23.41415-8.99527-5.5559-19.0488-8.33385-30.1606-8.33385s-21.29762 2.77795-30.55745 8.33385c-8.99527 5.5559-16.27085 13.36062-21.82675 23.41415-5.29133 9.78897-7.937 21.4299-7.937 34.9228 0 13.22833 2.64567 24.86927 7.937 34.9228 5.5559 9.78897 12.83148 17.4614 21.82675 23.0173 9.25983 5.5559 19.44565 8.33385 30.55745 8.33385s21.16533-2.77795 30.1606-8.33385c9.25983-5.5559 16.53542-13.22833 21.82675-23.0173 5.5559-10.05353 8.33385-21.69447 8.33385-34.9228zm168.80635-110.3243c21.1652 0 36.7747 5.15905 46.8282 15.47715 10.0535 10.05353 16.6677 23.14958 19.8425 39.28815l-6.7464-3.57165 3.1748-6.3496c3.1748-6.08503 8.0693-12.56692 14.6834-19.44565 6.6142-7.1433 14.5512-13.09605 23.811-17.85825 9.5244-5.02677 20.1071-7.54015 31.748-7.54015 19.0488 0 33.4677 4.10078 43.2567 12.30235 10.0535 8.20157 16.9323 19.18108 20.6362 32.93855 3.7039 13.4929 5.5559 28.5732 5.5559 45.2409v101.5936c0 6.87873-2.2488 12.6992-6.7465 17.4614-4.4976 4.49763-10.1858 6.74645-17.0645 6.74645s-12.5669-2.24882-17.0646-6.74645c-4.4976-4.7622-6.7464-10.58267-6.7464-17.4614v-101.5936c0-8.7307-1.0583-16.53542-3.1748-23.41415-2.1165-7.1433-5.9528-12.83148-11.5087-17.06455s-13.4929-6.3496-23.811-6.3496c-10.0535 0-18.6519 2.11653-25.7952 6.3496s-12.567 9.92125-16.2709 17.06455c-3.4393 6.87873-5.159 14.68345-5.159 23.41415v101.5936c0 6.87873-2.2488 12.6992-6.7465 17.4614-4.4976 4.49763-10.1858 6.74645-17.0645 6.74645s-12.5669-2.24882-17.0646-6.74645c-4.4976-4.7622-6.7464-10.58267-6.7464-17.4614v-101.5936c0-8.7307-1.0583-16.53542-3.1748-23.41415-2.1165-7.1433-5.9527-12.83148-11.5086-17.06455s-13.4929-6.3496-23.811-6.3496c-10.05357 0-18.65199 2.11653-25.79529 6.3496s-12.56692 9.92125-16.27085 17.06455c-3.43937 6.87873-5.15905 14.68345-5.15905 23.41415v101.5936c0 6.87873-2.24882 12.6992-6.74645 17.4614-4.49763 4.49763-10.18582 6.74645-17.06455 6.74645s-12.56692-2.24882-17.06455-6.74645c-4.49763-4.7622-6.74645-10.58267-6.74645-17.4614v-163.89905c0-6.87873 2.24882-12.56692 6.74645-17.06455 4.49763-4.7622 10.18582-7.1433 17.06455-7.1433s12.56692 2.3811 17.06455 7.1433c4.49763 4.49763 6.74645 10.18582 6.74645 17.06455v17.06455l-5.95275-1.19055c2.3811-4.49763 5.68818-9.25983 9.92125-14.2866 4.23307-5.29133 9.39212-10.18582 15.47715-14.68345s12.83148-8.06928 20.23935-10.71495c7.40789-2.91023 15.47719-4.36535 24.20789-4.36535zm396.2015 0c6.8787 0 12.5669 2.24882 17.0645 6.74645 4.4977 4.49763 6.7465 10.3181 6.7465 17.4614v167.86755c0 6.87873-2.2488 12.6992-6.7465 17.4614-4.4976 4.49763-10.1858 6.74645-17.0645 6.74645s-12.5669-2.24882-17.0646-6.74645c-4.4976-4.7622-6.7464-10.58267-6.7464-17.4614v-19.44565l8.7307 3.57165c0 3.43937-1.852 7.67243-5.5559 12.6992-3.7039 4.7622-8.7307 9.5244-15.0804 14.2866-6.3496 4.7622-13.8897 8.86298-22.6204 12.30235-8.4661 3.1748-17.726 4.7622-27.7795 4.7622-18.2551 0-34.7906-4.62992-49.6063-13.88975-14.8157-9.5244-26.5889-22.48817-35.3196-38.8913-8.4661-16.6677-12.6992-35.7165-12.6992-57.1464 0-21.69447 4.2331-40.74327 12.6992-57.1464 8.7307-16.6677 20.3716-29.63147 34.9228-38.8913 14.5511-9.5244 30.6897-14.2866 48.4157-14.2866 11.3763 0 21.8267 1.71968 31.3511 5.15905s17.726 7.80472 24.6048 13.09605c7.1433 5.29133 12.5669 10.71495 16.2708 16.27085 3.9685 5.29133 5.9528 9.78897 5.9528 13.4929l-14.2866 5.15905v-28.97005c0-6.87873 2.2488-12.56692 6.7464-17.06455 4.4977-4.7622 10.1859-7.1433 17.0646-7.1433zm-80.1638 176.59825c11.6409 0 21.8268-2.91023 30.5575-8.7307s15.4771-13.75747 20.2394-23.811c5.0267-10.05353 7.5401-21.29762 7.5401-33.73225 0-12.6992-2.5134-24.07557-7.5401-34.1291-4.7623-10.05353-11.5087-17.99053-20.2394-23.811s-18.9166-8.7307-30.5575-8.7307c-11.3763 0-21.4299 2.91023-30.1606 8.7307s-15.6094 13.75747-20.6362 23.811c-4.7622 10.05353-7.1433 21.4299-7.1433 34.1291 0 12.43463 2.3811 23.67872 7.1433 33.73225 5.0268 10.05353 11.9055 17.99053 20.6362 23.811s18.7843 8.7307 30.1606 8.7307zm218.0157-176.59825c15.0803 0 28.1763 1.5874 39.2881 4.7622 11.3764 3.1748 20.1071 7.67243 26.1921 13.4929 6.3496 5.5559 9.5244 12.30235 9.5244 20.23935 0 5.29133-1.5874 10.3181-4.7622 15.0803-3.1748 4.49763-7.8047 6.74645-13.8897 6.74645-4.2331 0-7.8047-0.52913-10.715-1.5874-2.6457-1.32283-5.0268-2.91023-7.1433-4.7622s-4.6299-3.57165-7.5401-5.15905c-2.6457-1.5874-6.7465-2.77795-12.3024-3.57165-5.2913-1.05827-9.2598-1.5874-11.9055-1.5874-13.4929 0-25.0015 2.91023-34.5259 8.7307-9.2599 5.82047-16.4032 13.75747-21.4299 23.811-5.0268 9.78897-7.5402 21.16533-7.5402 34.1291 0 12.6992 2.5134 24.07557 7.5402 34.1291 5.2913 9.78897 12.4346 17.59368 21.4299 23.41415 9.2598 5.82047 19.8425 8.7307 31.748 8.7307 6.6141 0 12.3023-0.39685 17.0645-1.19055s8.7307-1.98425 11.9055-3.57165c3.7039-2.11653 7.011-4.36535 9.9213-6.74645 2.9102-2.3811 7.2755-3.57165 13.096-3.57165 6.8787 0 12.1701 2.24882 15.874 6.74645 3.7039 4.23307 5.5559 9.5244 5.5559 15.874 0 6.61417-3.7039 12.6992-11.1118 18.2551-7.4079 5.29133-17.1968 9.65668-29.3669 13.09605-11.9055 3.1748-24.8692 4.7622-38.8913 4.7622-20.9007 0-39.0235-4.7622-54.3684-14.2866-15.3449-9.78897-27.2504-23.0173-35.7165-39.685-8.2016-16.6677-12.3024-35.31965-12.3024-55.95585 0-21.69447 4.3654-40.74327 13.0961-57.1464 8.9953-16.6677 21.2976-29.63147 36.907-38.8913 15.874-9.5244 33.9968-14.2866 54.3685-14.2866z"
          fill="url(#b)" aria-label="komac"/>
</svg>
