<svg xmlns="http://www.w3.org/2000/svg" xmlns:xlink="http://www.w3.org/1999/xlink" width="512" height="512" version="1.1" viewBox="0 0 512 512"><defs><linearGradient id="a"><stop offset="0" stop-color="#1e81ff"/><stop offset="1" stop-color="#a975e5"/></linearGradient><linearGradient id="b" x1="376.429" x2="20.995" y1="136.823" y2="489.722" gradientUnits="userSpaceOnUse"><stop offset="0" stop-color="#a975e5"/><stop offset="1" stop-color="#1e81ff"/></linearGradient><linearGradient id="d" x1="-1.958" x2="19.14" y1="25.825" y2="4.87" gradientUnits="userSpaceOnUse" xlink:href="#a"/><linearGradient id="c" x1="20.579" x2="373.735" y1="489.792" y2="136.015" gradientUnits="userSpaceOnUse" xlink:href="#a"/></defs><g class="UnoptimicedTransforms"><rect width="512" height="512" fill="url(#b)" ry="69.792"/></g><g fill="#e5e5e5" stroke-width="1" class="UnoptimicedTransforms"><path stroke-width="1" d="m69.791519 0c95.264171 1.2202534 191.462421-3.3987614 285.779471 12.721357 47.85859 8.046424 97.42441 31.224088 119.8466 76.730475 30.46115 61.551538 31.31574 132.096728 34.84751 199.282508 1.32028 54.67744 2.77833 109.49504 0.93361 164.13035-4.67385 37.35223-42.56804 63.9009-79.27619 59.14758-94.43544-1.12091-189.76386 3.50061-283.31891-12.01312-47.15812-7.56541-96.536467-30.44426-117.24336-76.19523-27.9123042-61.10312-27.3299553-130.0201-30.2353317-195.84836-0.83612234-56.25087-2.10829985-112.62354-0.32362356-168.820253 4.46244856-33.292945 35.39724026-59.80352129 68.99022426-59.135307z" transform="matrix(.83984375 0 0 .83984375 41.469328 41.967868)"/></g><g fill="none" stroke-linecap="round" stroke-linejoin="round"><path stroke-width="25.34" d="m53.279434 53.279457h405.441096v405.441093h-405.441096z"/><polyline stroke="url(#d)" stroke-width="2.368" points="5 7 10 12 5 17" class="UnoptimicedTransforms" transform="matrix(16.893379,0,0,16.893379,53.279434,53.279457)"/><line x1="272.893" x2="374.254" y1="340.467" y2="340.467" stroke="url(#c)" stroke-width="40" class="UnoptimicedTransforms"/></g></svg>